<?xml version="1.0" standalone="no"?>
<!DOCTYPE svg PUBLIC "-//W3C//DTD SVG 20010904//EN"
 "http://www.w3.org/TR/2001/REC-SVG-20010904/DTD/svg10.dtd">
<svg version="1.0" xmlns="http://www.w3.org/2000/svg"
 width="240.000000pt" height="240.000000pt" viewBox="0 0 240.000000 240.000000"
 preserveAspectRatio="xMidYMid meet">
<metadata>
Created by potrace 1.14, written by Peter Selinger 2001-2017
</metadata>
<g transform="translate(0.000000,240.000000) scale(0.100000,-0.100000)"
fill="#000000" stroke="none">
<path d="M1097 2373 c-13 -25 -26 -69 -28 -90 0 -5 -4 -12 -9 -18 -4 -5 -13
-28 -20 -50 -22 -72 -125 -268 -201 -385 -42 -63 -139 -199 -217 -302 -78
-103 -142 -192 -142 -198 0 -5 -3 -10 -8 -10 -26 0 -116 -242 -128 -345 -23
-199 25 -418 128 -575 51 -79 50 -77 118 -144 81 -81 111 -103 222 -165 45
-25 176 -70 232 -79 54 -9 259 -9 313 0 96 16 228 71 328 136 36 23 189 172
218 213 54 73 124 232 143 324 16 76 21 245 9 295 -3 14 -8 39 -10 55 -7 56
-70 227 -92 249 -4 4 -8 11 -8 16 0 4 -25 41 -56 81 -30 41 -99 133 -152 204
-54 72 -102 136 -107 142 -63 77 -257 419 -264 467 -1 6 -4 16 -7 21 -3 6 -17
44 -29 85 -13 41 -30 81 -39 88 -9 7 -46 12 -98 12 -80 0 -83 -1 -96 -27z"/>
</g>
</svg>
