<svg width="144" height="123" viewBox="0 0 144 123" fill="none" xmlns="http://www.w3.org/2000/svg">
<path fill-rule="evenodd" clip-rule="evenodd" d="M12.3997 84.2484C16.4703 84.3539 20.0318 81.4403 20.4952 77.4331C20.4974 77.4032 20.4996 77.3733 20.503 77.3506C20.8009 74.5162 19.8575 71.6314 18.2693 69.2424C16.9697 67.2831 15.1097 65.5392 12.8071 65.0309C10.1609 64.4567 7.43068 65.6096 5.24348 67.1701C4.04888 68.027 2.92918 69.0184 2.11478 70.2374C-0.245703 73.7767 0.475177 78.9513 3.55468 81.9377C5.38388 83.7165 9.42568 84.1666 12.3997 84.2484ZM38.9214 50.8222C38.4579 54.8295 34.8965 57.743 30.8259 57.6375C27.8531 57.5629 23.8113 57.1128 21.9737 55.3281C18.8942 52.3417 18.1733 47.167 20.5409 43.6266C21.3554 42.4076 22.475 41.4161 23.6697 40.5592C25.8568 38.9987 28.5871 37.8458 31.2333 38.42C33.5358 38.9283 35.3959 40.6722 36.6955 42.6316C38.2837 45.0206 39.2271 47.9053 38.9292 50.7397C38.9275 50.7513 38.926 50.7647 38.9248 50.7791L38.9233 50.7963L38.9214 50.822V50.8222ZM45.979 24.1177C45.5156 28.125 41.9541 31.0385 37.8835 30.933C34.9107 30.8584 30.8677 30.4011 29.0313 28.6236C25.9518 25.6371 25.2309 20.4625 27.5985 16.9221C28.413 15.7031 29.5326 14.7116 30.7273 13.8547C32.9145 12.2942 35.6435 11.1342 38.2909 11.7155C40.5934 12.2238 42.4535 13.9677 43.7531 15.9271C45.3413 18.3161 46.2847 21.2008 45.9868 24.0352C45.9834 24.0579 45.9812 24.0877 45.979 24.1175V24.1177ZM60.9365 47.9546C65.007 48.0601 68.5685 45.1465 69.0319 41.1393C69.0341 41.1094 69.0363 41.0795 69.0397 41.0567C69.3377 38.2223 68.3942 35.3376 66.806 32.9486C65.5064 30.9893 63.6464 29.2454 61.3438 28.7371C58.6964 28.1557 55.9674 29.3158 53.7802 30.8763C52.5856 31.7332 51.4659 32.7246 50.6515 33.9436C48.2839 37.4841 49.0047 42.6587 52.0842 45.6451C53.9218 47.4299 57.9636 47.88 60.9365 47.9546ZM64.0111 69.0327C63.5476 73.04 59.9862 75.9535 55.9156 75.848C52.9428 75.7734 48.8998 75.3162 47.0634 73.5386C43.9839 70.5522 43.263 65.3776 45.6306 61.8371C46.4463 60.6252 47.5647 59.6266 48.7594 58.7698C50.9466 57.2092 53.6756 56.0492 56.323 56.6305C58.6255 57.1388 60.4856 58.8828 61.7852 60.8421C63.3734 63.2311 64.3168 66.1158 64.0189 68.9502C64.0155 68.9729 64.0133 69.0028 64.0111 69.0327ZM42.1889 98.1069C46.2595 98.2129 49.8209 95.2989 50.2844 91.2919C50.2856 91.2759 50.2868 91.2599 50.2881 91.2449C50.2889 91.2369 50.2897 91.2289 50.2906 91.2209L50.2922 91.2089C50.5901 88.3749 49.6467 85.4902 48.0585 83.1012C46.7589 81.1419 44.8988 79.398 42.5963 78.8897C39.9489 78.3083 37.2199 79.4684 35.0327 81.0289C33.838 81.8858 32.7196 82.8844 31.9039 84.0962C29.5363 87.6367 30.2572 92.8109 33.3367 95.7979C35.1659 97.5769 39.209 98.0339 42.1889 98.1069ZM84.2728 88.5166C83.8093 92.5239 80.2479 95.4379 76.1773 95.3319C73.2045 95.2569 69.1615 94.7999 67.3251 93.0229C64.2456 90.0359 63.5247 84.8614 65.8923 81.3209C66.708 80.1091 67.8264 79.1105 69.0211 78.2536C71.2082 76.6931 73.9373 75.5331 76.5847 76.1144C78.8872 76.6227 80.7473 78.3666 82.0469 80.326C83.6351 82.715 84.5785 85.5997 84.2806 88.4341C84.2772 88.4568 84.275 88.4867 84.2728 88.5166ZM56.8764 122.515C60.947 122.621 64.5084 119.707 64.9719 115.7C64.9741 115.67 64.9762 115.64 64.9797 115.617C65.2776 112.783 64.3341 109.898 62.7459 107.509C61.4464 105.55 59.5863 103.806 57.2837 103.298C54.6363 102.716 51.9073 103.876 49.7202 105.437C48.5255 106.294 47.4059 107.285 46.5914 108.504C44.2238 112.045 44.9446 117.219 48.0242 120.206C49.8605 121.983 53.8964 122.442 56.8764 122.515ZM107.18 106.271C106.716 110.279 103.155 113.192 99.084 113.087C96.11 113.005 92.069 112.555 90.232 110.777C87.1527 107.791 86.4318 102.616 88.7994 99.0759C89.6139 97.8569 90.734 96.8649 91.928 96.0079C94.115 94.4479 96.844 93.2879 99.492 93.8689C101.794 94.3769 103.654 96.1209 104.954 98.0809C106.542 100.47 107.486 103.354 107.188 106.189C107.184 106.211 107.182 106.241 107.18 106.271ZM91.047 38.2707C95.117 38.3763 98.679 35.4627 99.142 31.4555C99.144 31.4256 99.147 31.3957 99.15 31.3729C99.448 28.5385 98.504 25.6538 96.916 23.2648C95.617 21.3055 93.757 19.5616 91.454 19.0532C88.8067 18.4719 86.0777 19.6319 83.8906 21.1925C82.6959 22.0494 81.5762 23.0408 80.7618 24.2598C78.3942 27.8003 79.115 32.9749 82.1945 35.9613C84.0321 37.7461 88.0739 38.1961 91.047 38.2707ZM92.967 57.5864C92.503 61.5936 88.9418 64.5072 84.8712 64.4017C81.8984 64.3271 77.8554 63.8698 76.019 62.0922C72.9395 59.1058 72.2187 53.9312 74.5862 50.3907C75.4007 49.1717 76.5203 48.1803 77.715 47.3234C79.9022 45.7629 82.6312 44.6028 85.2786 45.1842C87.5811 45.6925 89.4412 47.4364 90.741 49.3957C92.329 51.7847 93.272 54.6694 92.975 57.5039C92.971 57.5266 92.969 57.5565 92.967 57.5864ZM111.163 58.4885C115.233 58.594 118.795 55.6804 119.258 51.6732C119.261 51.6433 119.263 51.6134 119.266 51.5906C119.564 48.7562 118.621 45.8715 117.032 43.4825C115.733 41.5232 113.873 39.7793 111.57 39.2709C108.923 38.6896 106.194 39.8497 104.007 41.4102C102.812 42.2671 101.692 43.2585 100.878 44.4775C98.51 48.018 99.231 53.1926 102.311 56.179C104.147 57.9566 108.19 58.4138 111.163 58.4885ZM112.355 77.6494C111.891 81.6566 108.33 84.5702 104.259 84.4647C101.285 84.3829 97.243 83.9328 95.407 82.1553C92.328 79.1688 91.607 73.9942 93.974 70.4537C94.79 69.2419 95.908 68.2433 97.103 67.3864C99.29 65.8259 102.019 64.6658 104.667 65.2472C106.969 65.7555 108.829 67.4994 110.129 69.4587C111.717 71.8477 112.66 74.7325 112.363 77.5669C112.359 77.5896 112.357 77.6195 112.355 77.6494ZM75.5084 13.5535C75.045 17.5607 71.4835 20.4743 67.4129 20.3687C64.4401 20.2941 60.3971 19.8369 58.5607 18.0593C55.4812 15.0729 54.7603 9.89834 57.128 6.35784C57.9424 5.13884 59.0621 4.14744 60.2567 3.29054C62.4439 1.73004 65.1729 0.56994 67.8203 1.15124C70.1228 1.65954 71.9829 3.40354 73.2825 5.36284C74.8707 7.75184 75.8141 10.6365 75.5162 13.4709C75.515 13.4789 75.514 13.4879 75.513 13.4974C75.5119 13.5078 75.511 13.519 75.5101 13.5304C75.5095 13.538 75.509 13.5457 75.5084 13.5535ZM134.801 45.1525C138.923 45.2565 142.534 42.29 143.009 38.2217L143.016 38.132C143.319 35.2449 142.368 32.3172 140.758 29.8877C139.438 27.8951 137.566 26.1237 135.226 25.6145C132.549 25.0309 129.778 26.2056 127.56 27.801C126.345 28.6688 125.215 29.6842 124.39 30.9272C121.988 34.5253 122.717 39.7871 125.834 42.8187C127.696 44.6213 131.791 45.077 134.801 45.1525ZM121.208 13.816C120.733 17.8842 117.122 20.8508 113 20.7468C109.99 20.6712 105.896 20.2155 104.033 18.413C100.916 15.3814 100.187 10.1196 102.589 6.52144C103.414 5.27854 104.545 4.26304 105.759 3.39534C107.977 1.79984 110.748 0.62524 113.426 1.20874C115.765 1.71804 117.637 3.48934 118.958 5.48204C120.567 7.91154 121.518 10.8392 121.215 13.7262L121.208 13.816Z" fill="#162A91"/>
</svg>
