<svg width="141" height="154" viewBox="0 0 141 154" fill="none" xmlns="http://www.w3.org/2000/svg">
<path fill-rule="evenodd" clip-rule="evenodd" d="M38.434 25.6437C33.44 27.012 28.263 24.1669 26.439 19.2687C25.111 15.6878 23.71 10.6588 24.952 7.6281C27.033 2.5297 32.85 -0.808396 38.195 0.306704C40.037 0.692404 41.755 1.5507 43.348 2.5628C46.254 4.4197 48.935 7.1186 49.519 10.545C50.018 13.5307 48.832 16.5815 47.121 19.068C45.037 22.1041 42.054 24.61 38.5359 25.6134C38.507 25.6202 38.471 25.632 38.434 25.6437ZM66.9579 28.4605C68.7829 33.3587 73.9599 36.2038 78.9539 34.8355L78.97 34.8305C78.984 34.8257 78.999 34.8211 79.013 34.817C79.028 34.8124 79.043 34.8083 79.056 34.8052C82.574 33.8018 85.557 31.2959 87.641 28.2598C89.352 25.7733 90.537 22.7225 90.039 19.7368C89.455 16.3104 86.774 13.6115 83.867 11.7546C82.275 10.7425 80.557 9.8842 78.715 9.4985C73.365 8.3755 67.548 11.7135 65.4669 16.8119C64.2219 19.8556 65.6229 24.8845 66.9579 28.4605ZM102.142 24.0688C103.967 28.967 109.143 31.8121 114.138 30.4438V30.4437L114.139 30.4433L114.165 30.4349L114.19 30.4274C114.208 30.4219 114.225 30.417 114.24 30.4135C117.758 29.4101 120.741 26.9042 122.825 23.8681C124.536 21.3816 125.721 18.3308 125.223 15.3451C124.647 11.9138 121.958 9.2197 119.051 7.3629C117.458 6.3508 115.741 5.4925 113.899 5.1067C108.548 3.9838 102.731 7.3218 100.651 12.4202C99.414 15.4589 100.807 20.4928 102.142 24.0688ZM104.914 66.053C99.92 67.422 94.743 64.577 92.918 59.679C91.583 56.1025 90.182 51.0736 91.427 48.0299C93.508 42.9315 99.324 39.5935 104.675 40.7165C106.517 41.1022 108.234 41.9605 109.827 42.9726C112.734 44.8295 115.423 47.5235 115.999 50.9548C116.497 53.9405 115.312 56.9913 113.601 59.478C111.517 62.514 108.534 65.02 105.016 66.023C104.987 66.03 104.95 66.042 104.914 66.053ZM57.295 67.066C59.12 71.964 64.2959 74.809 69.2899 73.441C69.311 73.434 69.332 73.427 69.351 73.421C69.366 73.417 69.38 73.413 69.392 73.41C72.91 72.407 75.894 69.901 77.978 66.865C79.688 64.378 80.874 61.328 80.376 58.3419C79.799 54.9106 77.1099 52.2165 74.2039 50.3597C72.6109 49.3476 70.886 48.4942 69.052 48.1035C63.701 46.9806 57.8839 50.3186 55.8029 55.417C54.5659 58.4557 55.959 63.49 57.295 67.066ZM36.2039 67.76C31.2099 69.128 26.034 66.283 24.209 61.385C22.868 57.8013 21.476 52.7674 22.717 49.7366C24.798 44.6382 30.615 41.3002 35.966 42.4231C37.8 42.8138 39.525 43.6672 41.118 44.6793C44.0239 46.5361 46.7139 49.2302 47.2899 52.6615C47.7879 55.6472 46.602 58.698 44.892 61.184C42.808 64.221 39.825 66.726 36.306 67.73L36.296 67.733L36.285 67.735C36.276 67.738 36.2679 67.74 36.2579 67.743C36.241 67.748 36.223 67.754 36.205 67.76H36.2039ZM43.8009 100.532C45.6259 105.43 50.802 108.275 55.796 106.906H55.797C55.833 106.895 55.8699 106.883 55.8979 106.876C59.417 105.873 62.3999 103.367 64.4839 100.331C66.1939 97.844 67.38 94.793 66.882 91.808C66.306 88.377 63.616 85.682 60.71 83.826C59.117 82.814 57.392 81.96 55.558 81.569C50.207 80.446 44.39 83.785 42.309 88.883C41.072 91.922 42.465 96.956 43.8009 100.532ZM14.176 96.947C9.18195 98.315 4.00495 95.47 2.17995 90.572C0.839948 86.988 -0.548049 81.962 0.688951 78.923C2.76895 73.825 8.58595 70.487 13.937 71.61C15.779 71.996 17.496 72.854 19.089 73.866C21.996 75.723 24.685 78.417 25.261 81.848C25.759 84.834 24.574 87.885 22.863 90.371C20.779 93.407 17.796 95.913 14.278 96.917C14.249 96.924 14.212 96.935 14.176 96.947ZM33.634 136.319C35.459 141.217 40.635 144.062 45.63 142.694C45.666 142.682 45.7029 142.67 45.7319 142.664C49.25 141.66 52.233 139.154 54.317 136.118C56.028 133.632 57.213 130.581 56.715 127.595C56.139 124.164 53.45 121.47 50.543 119.613C48.95 118.601 47.233 117.743 45.391 117.357C40.04 116.234 34.223 119.572 32.143 124.67C30.906 127.709 32.307 132.738 33.634 136.319ZM130.874 97.271C125.88 98.639 120.704 95.794 118.879 90.896C117.543 87.32 116.143 82.291 117.387 79.247C119.468 74.149 125.285 70.811 130.636 71.934C132.478 72.32 134.195 73.178 135.788 74.19C138.695 76.047 141.384 78.741 141.96 82.172C142.458 85.158 141.273 88.209 139.562 90.695C137.478 93.731 134.495 96.237 130.977 97.241C130.948 97.248 130.911 97.259 130.874 97.271ZM84.8009 96.063C86.6259 100.962 91.802 103.807 96.796 102.438C96.833 102.427 96.87 102.415 96.899 102.408C100.417 101.405 103.4 98.899 105.484 95.863C107.195 93.376 108.38 90.325 107.882 87.34C107.306 83.908 104.617 81.214 101.71 79.358C100.117 78.345 98.4 77.487 96.558 77.101C91.207 75.978 85.39 79.316 83.309 84.415C82.073 87.454 83.465 92.487 84.8009 96.063ZM116.437 130.915C111.443 132.283 106.267 129.438 104.442 124.54C103.106 120.964 101.713 115.93 102.95 112.892C105.031 107.793 110.848 104.455 116.199 105.578C118.04 105.964 119.758 106.822 121.351 107.834C124.257 109.691 126.946 112.385 127.523 115.816C128.021 118.802 126.835 121.853 125.125 124.339C123.041 127.376 120.057 129.881 116.539 130.885L116.522 130.889C116.514 130.891 116.505 130.894 116.496 130.896C116.483 130.9 116.47 130.905 116.456 130.909L116.437 130.915ZM70.199 128.766C72.024 133.664 77.2 136.509 82.194 135.141L82.2319 135.129C82.255 135.122 82.278 135.115 82.296 135.111C85.815 134.107 88.798 131.602 90.882 128.566C92.592 126.079 93.778 123.028 93.28 120.043C92.704 116.611 90.014 113.917 87.108 112.06C85.515 111.048 83.7899 110.195 81.9559 109.804C76.6049 108.681 70.788 112.019 68.707 117.118C67.47 120.156 68.871 125.185 70.199 128.766ZM128.873 54.1725C130.698 59.071 135.874 61.916 140.869 60.547C140.905 60.536 140.942 60.524 140.971 60.517C144.489 59.514 147.472 57.0079 149.556 53.9717C151.267 51.4852 152.452 48.4344 151.954 45.4488C151.378 42.0175 148.689 39.3234 145.782 37.4666C144.189 36.4545 142.472 35.5962 140.63 35.2104C135.279 34.0875 129.462 37.4255 127.382 42.5239C126.145 45.5626 127.537 50.5965 128.873 54.1725ZM143.837 152.753C138.765 154.137 133.502 151.258 131.65 146.299C130.298 142.679 128.879 137.584 130.133 134.502C132.249 129.338 138.166 125.949 143.602 127.085C145.478 127.472 147.229 128.331 148.844 129.362C151.807 131.239 154.534 133.976 155.122 137.444C155.636 140.474 154.424 143.552 152.684 146.079C150.562 149.161 147.531 151.696 143.947 152.718L143.837 152.753Z" fill="#162A91"/>
</svg>
