<svg width="207" height="132" viewBox="0 0 207 132" fill="none" xmlns="http://www.w3.org/2000/svg">
<path fill-rule="evenodd" clip-rule="evenodd" d="M199.058 104.722C187.199 120.911 165.684 125.267 146.974 127.587C122.996 130.555 98.064 133.224 74.0373 129.522C55.2174 126.157 36.2479 123.981 20.5117 112.193C8.66941 103.299 0.000710681 91.1979 0.23511 75.8799C0.44031 62.6831 7.00741 50.0805 17.6096 42.2304C23.996 37.4935 31.0295 36.0923 38.2988 33.3455C48.5048 29.4753 55.9011 22.0398 63.9489 14.9902C77.1682 3.42227 91.883 -1.28664 109.327 1.39336C126.671 4.06926 143.007 12.2442 158.338 20.3973C175.638 29.5891 193.087 41.4082 201.441 59.8247C207.944 74.1379 208.677 91.5689 199.058 104.722Z" fill="#162A91"/>
</svg>
