<svg width="812" height="665" viewBox="0 0 812 665" fill="none" xmlns="http://www.w3.org/2000/svg">
<path fill-rule="evenodd" clip-rule="evenodd" d="M1055.18 544.599C995.12 624.998 882.225 643.743 783.818 652.584C657.7 663.886 526.499 673.519 399.073 650.921C299.188 630.855 198.701 616.81 113.768 554.429C49.849 507.363 2.17743 444.503 1.00133 366.699C0.00502789 299.671 32.688 236.664 87.423 198.443C120.391 175.378 157.302 169.366 195.245 156.553C248.515 138.494 286.391 101.875 327.766 67.3199C395.731 10.6179 472.672 -10.9921 565.184 5.37596C657.17 21.7069 744.701 65.8239 826.921 109.671C919.7 159.107 1013.68 221.918 1060.68 316.821C1097.27 390.58 1103.89 479.275 1055.18 544.599Z" fill="#943434"/>
</svg>
