<svg width="555" height="359" viewBox="0 0 555 359" fill="none" xmlns="http://www.w3.org/2000/svg">
<path fill-rule="evenodd" clip-rule="evenodd" d="M-247.506 452.455C-199.655 517.778 -112.84 535.354 -37.346 544.716C59.406 556.69 160.007 567.458 256.955 552.522C332.894 538.943 409.436 530.165 472.933 482.602C520.716 446.711 555.695 397.883 554.749 336.074C553.921 282.826 527.423 231.975 484.642 200.299C458.873 181.186 430.493 175.532 401.161 164.448C359.98 148.832 330.135 118.83 297.662 90.3841C244.322 43.7071 184.947 24.7071 114.561 35.5211C44.576 46.3181 -21.341 79.3041 -83.201 112.202C-153.007 149.291 -223.413 196.982 -257.121 271.292C-283.362 329.046 -286.32 399.382 -247.506 452.455Z" fill="#E68845"/>
<path d="M57.752 19.6709C60.838 22.8829 65.856 23.3589 69.293 20.5999C69.318 20.5829 69.343 20.5579 69.368 20.5409C71.785 18.5669 73.265 15.5899 73.868 12.5039C74.361 9.97891 74.261 7.19391 72.856 5.01991C71.242 2.53591 68.231 1.33191 65.321 0.862914C63.732 0.603914 62.101 0.528915 60.529 0.846915C55.963 1.78292 52.542 6.35791 52.643 11.0579C52.701 13.8589 55.494 17.3209 57.752 19.6709Z" fill="#FCB538"/>
<path d="M31.713 35.0258C34.799 38.2368 39.817 38.7138 43.254 35.9538C43.279 35.9368 43.304 35.9118 43.329 35.8948C45.746 33.9218 47.226 30.9438 47.829 27.8588C48.322 25.3328 48.222 22.5478 46.817 20.3738C45.203 17.8898 42.192 16.6858 39.282 16.2178C37.693 15.9578 36.062 15.8828 34.49 16.2008C29.924 17.1368 26.503 21.7118 26.604 26.4118C26.662 29.2128 29.455 32.6758 31.713 35.0258Z" fill="#FCB538"/>
<path d="M62.596 50.6641C65.682 53.8751 70.7 54.3521 74.137 51.5921C74.162 51.5761 74.187 51.5501 74.212 51.5341C76.629 49.5601 78.109 46.5831 78.711 43.4971C79.205 40.9711 79.104 38.1871 77.699 36.0121C76.085 33.5291 73.075 32.3241 70.165 31.8561C68.576 31.5971 66.945 31.5212 65.373 31.8392C60.807 32.7762 57.386 37.3501 57.487 42.0501C57.545 44.8521 60.338 48.3141 62.596 50.6641Z" fill="#FCB538"/>
<path d="M37.221 68.502C40.307 71.713 45.325 72.19 48.762 69.43C48.787 69.413 48.812 69.388 48.837 69.372C51.254 67.398 52.734 64.421 53.336 61.335C53.83 58.809 53.729 56.025 52.324 53.85C50.71 51.366 47.7 50.162 44.79 49.694C43.201 49.435 41.57 49.359 39.998 49.677C35.432 50.614 32.011 55.188 32.112 59.888C32.17 62.69 34.963 66.16 37.221 68.502Z" fill="#FCB538"/>
<path d="M9.409 75.267C12.495 78.479 17.512 78.955 20.949 76.196C20.974 76.179 21 76.154 21.025 76.137C23.442 74.155 24.922 71.186 25.524 68.101C26.017 65.575 25.917 62.79 24.512 60.616C22.898 58.132 19.887 56.928 16.977 56.46C15.388 56.2 13.757 56.125 12.185 56.443C7.619 57.379 4.19901 61.954 4.29901 66.654C4.35801 69.447 7.151 72.918 9.409 75.267Z" fill="#FCB538"/>
<path d="M37.999 99.269C41.084 102.48 46.102 102.957 49.539 100.197C49.564 100.18 49.589 100.155 49.615 100.138C52.031 98.165 53.512 95.188 54.114 92.102C54.607 89.576 54.507 86.791 53.102 84.617C51.488 82.133 48.477 80.929 45.567 80.461C43.978 80.201 42.347 80.126 40.775 80.444C36.209 81.381 32.789 85.955 32.889 90.655C32.947 93.457 35.741 96.919 37.999 99.269Z" fill="#FCB538"/>
<path d="M2.04902 105.566C5.13502 108.777 10.153 109.254 13.59 106.494C13.615 106.478 13.64 106.453 13.665 106.436C16.082 104.462 17.562 101.485 18.164 98.3991C18.658 95.8741 18.558 93.0891 17.153 90.9141C15.539 88.4311 12.528 87.2261 9.61802 86.7581C8.02902 86.4991 6.398 86.4241 4.826 86.7411C0.260001 87.6781 -3.16098 92.2521 -3.05998 96.9521C-3.00198 99.7541 -0.199976 103.216 2.04902 105.566Z" fill="#FCB538"/>
<path d="M42.167 130.713C45.252 133.924 50.27 134.401 53.707 131.641C53.732 131.624 53.757 131.599 53.782 131.583C56.199 129.609 57.68 126.632 58.282 123.546C58.775 121.02 58.675 118.235 57.27 116.061C55.656 113.577 52.645 112.373 49.735 111.905C48.146 111.646 46.515 111.57 44.943 111.888C40.377 112.825 36.956 117.399 37.057 122.099C37.115 124.901 39.909 128.363 42.167 130.713Z" fill="#FCB538"/>
<path d="M93.487 66.3018C96.573 69.5138 101.59 69.9898 105.028 67.2308C105.053 67.2138 105.078 67.1888 105.103 67.1718C107.52 65.1988 109 62.2208 109.602 59.1348C110.095 56.6098 109.995 53.8248 108.59 51.6508C106.976 49.1668 103.965 47.9628 101.055 47.4938C99.466 47.2348 97.836 47.1598 96.263 47.4778C91.697 48.4138 88.277 52.9888 88.377 57.6888C88.427 60.4898 91.229 63.9518 93.487 66.3018Z" fill="#FCB538"/>
<path d="M68.565 81.8822C71.651 85.0942 76.669 85.5702 80.106 82.8112C80.131 82.7942 80.156 82.7692 80.181 82.7522C82.598 80.7792 84.078 77.8012 84.68 74.7162C85.174 72.1902 85.073 69.4052 83.668 67.2312C82.054 64.7472 79.044 63.5432 76.133 63.0752C74.544 62.8152 72.914 62.7402 71.341 63.0582C66.775 63.9942 63.355 68.5692 63.455 73.2692C63.514 76.0702 66.307 79.5332 68.565 81.8822Z" fill="#FCB538"/>
<path d="M93.581 97.5122C96.666 100.724 101.684 101.2 105.121 98.4412C105.146 98.4242 105.171 98.3992 105.197 98.3822C107.613 96.4082 109.094 93.4312 109.696 90.3452C110.189 87.8202 110.089 85.0352 108.684 82.8612C107.07 80.3772 104.059 79.1732 101.149 78.7042C99.56 78.4452 97.929 78.3702 96.357 78.6882C91.791 79.6242 88.371 84.1992 88.471 88.8992C88.529 91.7002 91.323 95.1622 93.581 97.5122Z" fill="#FCB538"/>
<path d="M68.217 112.415C71.303 115.626 76.321 116.103 79.758 113.343C79.783 113.326 79.808 113.301 79.833 113.285C82.25 111.303 83.73 108.334 84.332 105.248C84.826 102.722 84.726 99.9381 83.321 97.7631C81.707 95.2801 78.696 94.0751 75.786 93.6071C74.197 93.3481 72.566 93.2721 70.994 93.5901C66.428 94.5271 63.007 99.1011 63.108 103.801C63.166 106.603 65.968 110.065 68.217 112.415Z" fill="#FCB538"/>
<path d="M-3.11098 41.5488C-0.0249805 44.7598 4.992 45.2368 8.43 42.4768C8.455 42.4598 8.48002 42.4348 8.50502 42.4178C10.922 40.4358 12.402 37.4668 13.004 34.3818C13.497 31.8558 13.397 29.0708 11.992 26.8968C10.378 24.4128 7.36701 23.2088 4.45701 22.7408C2.86801 22.4808 1.23802 22.4058 -0.33498 22.7238C-4.89198 23.6688 -8.313 28.2518 -8.221 32.9428C-8.162 35.7358 -5.36098 39.1988 -3.11098 41.5488Z" fill="#FCB538"/>
<path d="M88.87 34.1807C91.956 37.3917 96.973 37.8687 100.41 35.1087C100.435 35.0917 100.461 35.0667 100.486 35.0507C102.902 33.0767 104.383 30.0998 104.985 27.0138C105.478 24.4878 105.378 21.7028 103.973 19.5288C102.359 17.0448 99.348 15.8408 96.438 15.3728C94.849 15.1138 93.218 15.0378 91.646 15.3558C87.08 16.2928 83.66 20.8668 83.76 25.5668C83.819 28.3688 86.612 31.8307 88.87 34.1807Z" fill="#FCB538"/>
<path d="M122.248 105.332C125.375 108.585 130.468 109.061 133.972 106.252C133.997 106.235 134.022 106.21 134.048 106.193C136.506 104.186 138.012 101.167 138.639 98.0392C139.149 95.4802 139.048 92.6542 137.627 90.4542C135.988 87.9372 132.935 86.7242 129.983 86.2562C128.369 85.9972 126.713 85.9222 125.116 86.2482C120.483 87.2012 116.996 91.8512 117.088 96.6182C117.121 99.4442 119.956 102.948 122.248 105.332Z" fill="#FCB538"/>
</svg>
