<svg width="293" height="278" viewBox="0 0 293 278" fill="none" xmlns="http://www.w3.org/2000/svg">
<path fill-rule="evenodd" clip-rule="evenodd" d="M345.401 189.528C377.343 175.25 384.818 165.791 407.565 133.365C417.951 118.53 423.904 100.923 424.023 82.809C424.256 42.094 404.41 24.4048 376.003 9.90421C347.727 -4.53229 312.387 -1.71849 284.51 13.4141C256.633 28.5467 235.867 54.79 223.254 83.862C217.158 97.942 210.43 114.93 195.408 118.087C188.8 119.482 181.987 117.686 175.24 116.963C136.98 112.897 100.362 151.104 106.131 189.059C107.633 198.931 111.477 208.403 111.923 218.373C113.162 245.47 89.888 267.024 66.907 281.446C43.9263 295.868 17.6183 308.987 5.81746 333.382C-7.76491 361.462 4.05217 397.813 28.9224 416.731C53.8199 435.656 88.594 438.466 118.333 428.786C148.064 419.134 173.124 398.38 193.09 374.356C210.927 352.898 227.38 327.054 254.23 319.268C267.588 315.401 282.632 316.442 294.421 309.106C302.465 304.108 307.847 295.876 312.314 287.546C325.368 263.194 332.657 235.773 333.466 208.17C333.71 200.232 338.303 193.079 345.401 189.528Z" fill="#0B4D3C"/>
</svg>
