<svg width="646" height="548" viewBox="0 0 646 548" fill="none" xmlns="http://www.w3.org/2000/svg">
<path d="M1.37433 355.326C7.42233 297.776 33.4543 231.846 78.7193 159.347C79.0333 158.864 79.3473 158.382 79.7043 157.925C81.2113 155.937 117.568 108.747 174.975 66.2891C252.813 8.73308 332.13 -11.8639 404.386 6.69608C463.376 21.8361 518.624 42.9961 559.913 66.2501C613.242 96.2841 641.867 128.693 644.943 162.566C648.888 205.803 611.042 243.851 532.436 275.639C266.022 383.398 217.928 465.432 212.979 504.738C210.861 521.531 199.738 534.548 181.916 541.487C178.727 542.739 175.301 543.794 171.675 544.628C130.934 554.118 67.5073 535.817 30.2383 483.219C6.11734 449.227 -3.85567 405.01 1.37433 355.326Z" fill="#FCB538"/>
</svg>
