<svg width="132" height="147" viewBox="0 0 132 147" fill="none" xmlns="http://www.w3.org/2000/svg">
<path fill-rule="evenodd" clip-rule="evenodd" d="M113.105 34.4811C117.191 34.7403 120.286 38.2333 120.322 42.3962C120.354 45.4366 120.033 49.5905 118.293 51.5504C115.363 54.8501 110.124 55.8591 106.436 53.6271C105.168 52.8619 104.109 51.7728 103.199 50.5961C101.532 48.4432 100.258 45.7211 100.752 42.9835C101.181 40.5979 102.892 38.6138 104.841 37.1809C107.215 35.4314 110.121 34.3159 113.015 34.4747C113.032 34.4753 113.046 34.4766 113.06 34.4779C113.074 34.4792 113.088 34.4805 113.105 34.4811ZM96.723 58.4193C100.81 58.6786 103.905 62.1716 103.941 66.3344C103.972 69.3748 103.651 73.5287 101.912 75.4887C98.982 78.7884 93.742 79.7974 90.055 77.5653C88.786 76.8001 87.7281 75.711 86.818 74.5343C85.15 72.3814 83.876 69.6594 84.371 66.9217C84.8 64.5362 86.51 62.552 88.46 61.1191C90.834 59.3696 93.7391 58.2541 96.634 58.4129C96.65 58.4135 96.664 58.4148 96.678 58.4161H96.679C96.693 58.4174 96.707 58.4188 96.723 58.4193ZM76.796 79.5875C80.882 79.8468 83.977 83.3398 84.013 87.5026C84.045 90.543 83.724 94.6968 81.984 96.6568C79.054 99.9568 73.815 100.966 70.127 98.7338C68.8587 97.9688 67.8002 96.8788 66.8903 95.7028C65.2227 93.5498 63.9486 90.8276 64.4431 88.09C64.8725 85.7044 66.5826 83.7203 68.5321 82.2873C70.906 80.5378 73.812 79.4224 76.706 79.5812L76.717 79.5816L76.728 79.5824L76.751 79.5844L76.771 79.5861C76.7791 79.5867 76.787 79.5872 76.796 79.5875ZM56.3149 84.2358C56.2789 80.0729 53.1837 76.5799 49.0972 76.3207C49.0818 76.3221 49.0655 76.3201 49.048 76.318H49.0478L49.0477 76.3179H49.0476H49.0475C49.0349 76.3164 49.0219 76.3148 49.008 76.3143C46.1133 76.1555 43.2079 77.271 40.8337 79.0205C38.8842 80.4534 37.1741 82.4375 36.7447 84.8231C36.2503 87.5607 37.5243 90.2828 39.192 92.4357C40.1018 93.6128 41.1604 94.7018 42.4287 95.4668C46.1166 97.6988 51.3556 96.6898 54.2861 93.3898C56.0252 91.4301 56.3465 87.2761 56.3149 84.2358ZM60.0046 105.83C64.0911 106.089 67.1861 109.582 67.2222 113.745C67.2537 116.785 66.9326 120.939 65.1935 122.899C62.2629 126.199 57.0238 127.208 53.336 124.976C52.0677 124.21 51.0092 123.121 50.0993 121.945C48.4317 119.792 47.1576 117.07 47.6521 114.332C48.0814 111.947 49.7916 109.962 51.7411 108.529C54.1153 106.78 57.0206 105.664 59.9154 105.823C59.9261 105.824 59.9358 105.824 59.9451 105.825L59.9598 105.826H59.96C59.974 105.828 59.988 105.829 60.0046 105.83ZM39.2839 107.821C39.2478 103.658 36.1527 100.165 32.0662 99.9058C32.0497 99.9048 32.0356 99.9038 32.0216 99.9018C32.0076 99.9008 31.9936 99.8998 31.977 99.8988C29.0823 99.7398 26.1769 100.856 23.8027 102.605C21.8532 104.038 20.1431 106.022 19.7137 108.408C19.2193 111.146 20.4933 113.868 22.161 116.021C23.0708 117.197 24.1294 118.286 25.3977 119.052C29.0855 121.284 34.3246 120.275 37.2551 116.975C38.9942 115.015 39.3154 110.861 39.2839 107.821ZM39.7798 125.994C43.8663 126.253 46.9614 129.746 46.9975 133.909C47.029 136.949 46.708 141.103 44.9688 143.063C42.0382 146.363 36.7991 147.372 33.1113 145.14C31.843 144.375 30.7845 143.286 29.8746 142.109C28.2069 139.956 26.9329 137.234 27.4273 134.496C27.8567 132.111 29.5669 130.127 31.5163 128.694C33.8905 126.944 36.7959 125.829 39.6906 125.988C39.7071 125.988 39.7211 125.989 39.7351 125.991H39.7352C39.7492 125.992 39.7633 125.993 39.7798 125.994ZM12.7881 121.427C16.8746 121.686 19.9697 125.179 20.0058 129.342C20.0373 132.383 19.7162 136.536 17.9771 138.496C15.0465 141.796 9.80744 142.805 6.11964 140.573C4.85134 139.808 3.79285 138.719 2.88295 137.542C1.21525 135.389 -0.0587536 132.667 0.435646 129.93C0.865046 127.544 2.57525 125.56 4.52465 124.127C6.89885 122.377 9.80425 121.262 12.699 121.421C12.732 121.422 12.7551 121.426 12.7881 121.427ZM108.065 100.577C108.029 96.4138 104.934 92.921 100.847 92.6618C100.832 92.6632 100.815 92.6612 100.798 92.659C100.785 92.6575 100.772 92.6559 100.758 92.6554C97.863 92.4966 94.958 93.6118 92.584 95.3618C90.634 96.7948 88.924 98.7788 88.495 101.164C88 103.902 89.274 106.624 90.942 108.777C91.8521 109.954 92.91 111.043 94.179 111.808C97.866 114.04 103.105 113.031 106.036 109.731C107.775 107.771 108.096 103.617 108.065 100.577ZM131.129 84.4824C131.093 80.3195 127.998 76.8265 123.912 76.5673C123.896 76.5687 123.88 76.5667 123.862 76.5645C123.849 76.563 123.836 76.5614 123.822 76.5609C120.928 76.4021 118.022 77.5176 115.648 79.267C113.699 80.7 111.989 82.6841 111.559 85.0697C111.065 87.8073 112.339 90.5294 114.006 92.6823C114.916 93.8588 115.975 94.9478 117.243 95.7128C120.931 97.9458 126.17 96.9368 129.101 93.6368C130.84 91.6766 131.161 87.5227 131.129 84.4824ZM44.4609 53.3705C44.4247 49.2077 41.3298 45.7147 37.2432 45.4555C37.2267 45.4549 37.2126 45.4536 37.1986 45.4523C37.191 45.4516 37.1833 45.4509 37.1753 45.4503C37.1686 45.4498 37.1616 45.4493 37.154 45.4491C34.2592 45.2903 31.3539 46.4057 28.9797 48.1552C27.0302 49.5882 25.3201 51.5723 24.8907 53.9579C24.3963 56.6955 25.6703 59.4176 27.338 61.5704C28.2478 62.7471 29.3064 63.8362 30.5747 64.6015C34.2625 66.8335 39.5016 65.8245 42.4321 62.5248C44.1712 60.5648 44.4924 56.4109 44.4609 53.3705ZM64.5315 51.0258C68.6181 51.285 71.713 54.778 71.749 58.9409C71.781 61.9812 71.46 66.1351 69.72 68.0951C66.7899 71.3948 61.5508 72.4038 57.863 70.1718C56.5947 69.4066 55.5362 68.3175 54.6263 67.1408C52.9586 64.9879 51.6846 62.2658 52.179 59.5282C52.6084 57.1426 54.3186 55.1585 56.268 53.7255C58.6422 51.9761 61.5476 50.8606 64.4424 51.0194C64.4475 51.0196 64.4526 51.0199 64.4575 51.0203C64.4613 51.0207 64.4651 51.0211 64.4688 51.0215L64.482 51.023C64.4996 51.0252 64.5161 51.0272 64.5315 51.0258ZM64.0354 32.8527C63.9993 28.6899 60.9044 25.1969 56.8178 24.9376C56.8013 24.9371 56.7872 24.9358 56.7732 24.9345C56.7592 24.9331 56.7451 24.9318 56.7286 24.9313C53.8338 24.7725 50.9285 25.8879 48.5543 27.6374C46.6048 29.0704 44.8947 31.0545 44.4653 33.4401C43.9708 36.1777 45.2449 38.8998 46.9126 41.0526C47.8224 42.2293 48.881 43.3184 50.1492 44.0836C53.8371 46.3157 59.0762 45.3067 62.0067 42.007C63.7458 40.047 64.067 35.8931 64.0354 32.8527ZM84.106 30.508C88.193 30.7672 91.288 34.2602 91.324 38.423C91.355 41.4634 91.034 45.6173 89.295 47.5773C86.365 50.877 81.1261 51.886 77.438 49.6539C76.1691 48.8887 75.111 47.7996 74.201 46.6229C72.533 44.4701 71.259 41.748 71.754 39.0104C72.183 36.6248 73.8931 34.6407 75.843 33.2077C78.217 31.4582 81.122 30.3428 84.017 30.5016C84.031 30.5021 84.043 30.503 84.054 30.5041L84.062 30.5048C84.076 30.5061 84.09 30.5074 84.106 30.508ZM27.7262 77.9587C27.6901 73.7958 24.5951 70.3028 20.5086 70.0436C20.4931 70.045 20.4766 70.043 20.459 70.0408C20.4464 70.0393 20.4332 70.0377 20.4194 70.0372C17.5246 69.8784 14.6193 70.9939 12.2451 72.7434C10.2956 74.1763 8.58555 76.1604 8.15615 78.546C7.66165 81.2836 8.93575 84.0057 10.6034 86.1586C11.5132 87.3353 12.5717 88.4244 13.84 89.1896C17.5279 91.4216 22.767 90.4126 25.6975 87.1129C27.4366 85.153 27.7578 80.999 27.7262 77.9587ZM42.0801 0.92566C46.1666 1.18491 49.2617 4.67789 49.2978 8.84079C49.3293 11.8811 49.0081 16.0351 47.269 17.995C44.3385 21.2947 39.0994 22.3037 35.4116 20.0717C34.1433 19.3065 33.0847 18.2174 32.1749 17.0407C30.5072 14.8878 29.2332 12.1657 29.7276 9.42809C30.157 7.04249 31.8671 5.05839 33.8166 3.62539C36.1908 1.87595 39.0962 0.76049 41.9909 0.9193C42.0075 0.91987 42.0215 0.92117 42.0355 0.92248C42.0495 0.92379 42.0636 0.9251 42.0801 0.92566Z" fill="#FCB538"/>
</svg>
