<svg width="303" height="288" viewBox="0 0 303 288" fill="none" xmlns="http://www.w3.org/2000/svg">
<path fill-rule="evenodd" clip-rule="evenodd" d="M15.9688 229.014C41.9625 264.499 89.1219 274.046 130.132 279.132C182.69 285.636 237.338 291.486 290.003 283.372C331.254 275.996 372.834 271.227 407.326 245.39C433.283 225.894 452.284 199.369 451.77 165.793C451.321 136.868 436.926 109.244 413.687 92.0379C399.689 81.6549 384.272 78.5829 368.338 72.5629C345.968 64.0799 329.756 47.7819 312.116 32.3299C283.14 6.97342 250.886 -3.34799 212.651 2.52641C174.634 8.39161 138.826 26.3109 105.223 44.1809C67.3029 64.3289 29.0567 90.2349 10.7459 130.603C-3.50887 161.976 -5.11557 200.183 15.9688 229.014Z" fill="#0B4D3C"/>
</svg>
