<svg width="154" height="101" viewBox="0 0 154 101" fill="none" xmlns="http://www.w3.org/2000/svg">
<path fill-rule="evenodd" clip-rule="evenodd" d="M11.2869 60.6794C23.4018 52.8728 36.0324 46.0097 49.1581 40.0476C54.7559 37.4998 51.1482 28.6113 45.5097 31.1665C31.6508 37.4623 18.3114 44.7681 5.51541 53.008C0.319887 56.3645 6.12269 64.0007 11.2869 60.6794Z" fill="#943434"/>
<path fill-rule="evenodd" clip-rule="evenodd" d="M35.4504 67.706C43.926 62.8918 52.7037 58.7535 61.798 55.2801C67.5598 53.0722 63.9243 44.1929 58.1496 46.3991C49.0534 49.8854 40.2758 54.0237 31.8019 58.825C26.509 61.8378 30.0873 70.7487 35.4504 67.706Z" fill="#943434"/>
<path fill-rule="evenodd" clip-rule="evenodd" d="M54.4592 87.8531C81.134 73.7428 111.357 67.9053 141.355 71.3598C147.476 72.0677 148.827 62.5629 142.68 61.8514C111.11 58.2173 78.9369 64.1132 50.8108 78.972C45.4064 81.8372 48.9846 90.7481 54.4592 87.8531Z" fill="#943434"/>
<path fill-rule="evenodd" clip-rule="evenodd" d="M62.4732 32.0524C77.2761 23.247 94.8341 20.6363 111.63 24.06C117.678 25.299 118.977 15.787 112.955 14.5516C93.5419 10.5781 73.6774 14.2937 56.6999 24.3939C51.3872 27.5492 57.2177 35.1761 62.4732 32.0524Z" fill="#943434"/>
<path fill-rule="evenodd" clip-rule="evenodd" d="M83.002 49.7305C101.639 43.9289 121.32 43.4232 140.304 47.8255C146.317 49.2181 147.603 39.7042 141.629 38.317C120.957 33.521 99.5921 34.5448 79.3535 40.8494C73.4721 42.6841 77.1353 51.554 83.002 49.7305Z" fill="#943434"/>
</svg>
