<svg width="289" height="311" viewBox="0 0 289 311" fill="none" xmlns="http://www.w3.org/2000/svg">
<path fill-rule="evenodd" clip-rule="evenodd" d="M272.815 82.6389C265.742 62.3064 257.907 42.1275 242.234 26.8142C173.847 -37.3584 84.7504 28.7092 22.8762 68.6058C4.45639 80.4877 -14.4722 91.96 -34.8256 100.257C-53.7542 107.99 -74.1076 111.575 -92.8835 119.719C-121.429 132.113 -149.466 165.402 -128.96 196.951C-110.794 224.915 -70.4949 228.346 -40.779 231.573C-16.8638 234.133 7.15327 235.311 31.2211 235.106C53.6607 234.902 77.5249 232.392 98.9977 240.535C109.022 244.325 118.435 250.625 124.694 259.434C130.749 267.987 131.309 277.564 134.056 287.346C138.585 303.53 149.881 309.932 166.011 310.854C199.441 312.8 231.142 295.182 252.767 270.445C281.313 237.77 291.897 195.159 288.335 152.343C286.401 128.476 280.702 105.122 272.815 82.6389Z" fill="#162A91"/>
</svg>
