<svg width="415" height="278" viewBox="0 0 415 278" fill="none" xmlns="http://www.w3.org/2000/svg">
<path fill-rule="evenodd" clip-rule="evenodd" d="M338.854 242.937C191.511 302.309 127.327 281.822 66.4066 210.019C66.2526 209.822 66.1286 209.653 66.0316 209.454C65.8806 209.315 65.6986 209.149 65.5746 208.98C50.2527 190.409 39.4268 167.897 27.5462 147.086C12.3809 120.549 -6.51743 90.5409 3.70867 58.9629C8.64007 43.6469 20.2432 31.2679 36.3349 28.0499C49.4325 25.4259 62.5116 29.3369 74.6946 33.9849C88.8586 39.3889 102.627 46.9309 117.757 49.3319C140.321 52.9229 154.391 37.9689 169.634 23.8659C199.145 -3.3991 237.205 -5.2361 273.764 8.9379C294.234 16.8889 313.253 28.6789 331.609 40.5849C348.768 51.7279 365.538 63.9049 379.842 78.6569C404.852 104.481 420.987 139.459 411.319 175.602C402.044 210.16 379.842 220.521 338.854 242.937Z" fill="#E68845"/>
</svg>
