<svg width="388" height="302" viewBox="0 0 388 302" fill="none" xmlns="http://www.w3.org/2000/svg">
<path fill-rule="evenodd" clip-rule="evenodd" d="M94.6202 59.1903C110.824 50.3674 128.054 43.4931 145.661 38.0803C166.294 31.8014 188.331 29.3116 207.883 19.8932C224.303 11.5575 238.238 2.24737 257.034 0.407006C274.696 -1.3251 293.168 2.46385 308.237 12.0446C322.496 21.1381 333.731 34.6161 340.374 50.151C347.99 67.9051 347.018 85.0637 345.235 103.9C343.237 125.227 348.26 141.195 360.034 158.732C368.46 171.398 378.128 183.415 383.8 197.705C395.628 227.638 381.261 255.135 355.876 272.185C326.169 292.105 287.443 298.6 252.443 301.144C212.798 304.067 172.451 299.466 134.427 287.991C98.7251 277.165 62.4291 260.439 33.9648 235.919C7.06695 212.752 -10.7029 174.863 7.28301 140.87C25.269 106.823 61.4029 77.3233 94.6202 59.1903Z" fill="#FCB538"/>
</svg>
