<svg width="403" height="207" viewBox="0 0 403 207" fill="none" xmlns="http://www.w3.org/2000/svg">
<path fill-rule="evenodd" clip-rule="evenodd" d="M231.188 44.5105C251.836 50.8374 272.039 58.8726 291.039 69.1854C329.992 90.3806 372.367 124.862 393.461 164.659C400.82 178.526 403.078 192.948 401.551 207H-34.9531C-32.4609 203.231 -29.8672 199.519 -27.2773 195.81C-24.8945 192.399 -22.5117 188.989 -20.207 185.538C-6.3984 165.038 -0.507801 146.374 -2.8516 121.446C-4.9414 99.4282 -6.082 79.3719 2.8516 58.6196C10.6406 40.4613 23.8164 24.7072 40.5352 14.078C58.207 2.87937 79.871 -1.54944 100.582 0.475163C118.523 2.22623 132.688 9.76276 147.723 17.761C151.156 19.5884 154.637 21.44 158.219 23.2521C173.031 30.363 189.055 34.095 205.066 37.8242C213.844 39.8684 222.617 41.9118 231.188 44.5105Z" fill="#FCB538"/>
</svg>
