<svg width="176" height="159" viewBox="0 0 176 159" fill="none" xmlns="http://www.w3.org/2000/svg">
<g clip-path="url(#clip0_1:349)">
<path d="M78.8938 22.7604C82.5838 26.6004 88.5838 27.1704 92.6938 23.8704C92.7238 23.8504 92.7538 23.8204 92.7838 23.8004C95.6738 21.4404 97.4438 17.8804 98.1638 14.1904C98.7538 11.1704 98.6338 7.84038 96.9538 5.24038C95.0238 2.27038 91.4238 0.830379 87.9438 0.270379C86.0438 -0.0396218 84.0938 -0.129621 82.2138 0.250379C76.7538 1.37038 72.6638 6.84038 72.7838 12.4604C72.8538 15.8104 76.1938 19.9504 78.8938 22.7604Z" fill="#FCB538"/>
<path d="M47.7532 41.1205C51.4432 44.9605 57.4432 45.5305 61.5532 42.2305C61.5832 42.2105 61.6132 42.1805 61.6432 42.1605C64.5332 39.8005 66.3032 36.2405 67.0232 32.5505C67.6132 29.5305 67.4932 26.2005 65.8132 23.6005C63.8832 20.6305 60.2832 19.1905 56.8032 18.6305C54.9032 18.3205 52.9532 18.2305 51.0732 18.6105C45.6132 19.7305 41.5232 25.2005 41.6432 30.8205C41.7132 34.1705 45.0532 38.3105 47.7532 41.1205Z" fill="#FCB538"/>
<path d="M84.6829 59.8204C88.3729 63.6604 94.3729 64.2304 98.4829 60.9304C98.5129 60.9104 98.5429 60.8804 98.5729 60.8604C101.463 58.5004 103.233 54.9404 103.953 51.2504C104.543 48.2304 104.423 44.9004 102.743 42.3004C100.813 39.3304 97.2129 37.8904 93.7329 37.3304C91.8329 37.0204 89.8829 36.9304 88.0029 37.3104C82.5429 38.4304 78.4529 43.9004 78.5729 49.5204C78.6429 52.8704 81.9829 57.0104 84.6829 59.8204Z" fill="#FCB538"/>
<path d="M54.343 81.1505C58.033 84.9905 64.033 85.5605 68.143 82.2605C68.173 82.2405 68.203 82.2105 68.233 82.1905C71.123 79.8305 72.893 76.2705 73.613 72.5805C74.203 69.5605 74.083 66.2305 72.403 63.6305C70.473 60.6605 66.873 59.2205 63.393 58.6605C61.493 58.3505 59.543 58.2605 57.663 58.6405C52.203 59.7605 48.113 65.2305 48.233 70.8505C48.303 74.2005 51.643 78.3505 54.343 81.1505Z" fill="#FCB538"/>
<path d="M21.0813 89.2406C24.7713 93.0806 30.7713 93.6506 34.8813 90.3506C34.9113 90.3306 34.9413 90.3006 34.9713 90.2806C37.8613 87.9106 39.6313 84.3606 40.3513 80.6706C40.9413 77.6506 40.8213 74.3206 39.1413 71.7206C37.2113 68.7506 33.6113 67.3106 30.1313 66.7506C28.2313 66.4406 26.2813 66.3506 24.4013 66.7306C18.9413 67.8506 14.8513 73.3206 14.9713 78.9406C15.0413 82.2806 18.3813 86.4306 21.0813 89.2406Z" fill="#FCB538"/>
<path d="M55.2727 117.941C58.9627 121.781 64.9627 122.351 69.0727 119.051C69.1027 119.031 69.1327 119.001 69.1627 118.981C72.0527 116.621 73.8227 113.061 74.5427 109.371C75.1327 106.351 75.0127 103.021 73.3327 100.421C71.4027 97.4506 67.8027 96.0106 64.3227 95.4506C62.4227 95.1406 60.4727 95.0506 58.5927 95.4306C53.1327 96.5506 49.0427 102.021 49.1627 107.641C49.2327 110.991 52.5727 115.131 55.2727 117.941Z" fill="#FCB538"/>
<path d="M12.2805 125.471C15.9705 129.311 21.9705 129.881 26.0805 126.581C26.1105 126.561 26.1405 126.531 26.1705 126.511C29.0605 124.151 30.8305 120.591 31.5505 116.901C32.1405 113.881 32.0205 110.551 30.3405 107.951C28.4105 104.981 24.8105 103.541 21.3305 102.981C19.4305 102.671 17.4805 102.581 15.6005 102.961C10.1405 104.081 6.05054 109.551 6.17054 115.171C6.24054 118.521 9.59054 122.661 12.2805 125.471Z" fill="#FCB538"/>
<path d="M60.2532 155.54C63.9432 159.38 69.9432 159.95 74.0532 156.65C74.0832 156.63 74.1132 156.6 74.1432 156.58C77.0332 154.22 78.8032 150.66 79.5232 146.97C80.1132 143.95 79.9932 140.62 78.3132 138.02C76.3832 135.05 72.7832 133.61 69.3032 133.05C67.4032 132.74 65.4532 132.65 63.5732 133.03C58.1132 134.15 54.0232 139.62 54.1432 145.24C54.2132 148.59 57.5532 152.73 60.2532 155.54Z" fill="#FCB538"/>
<path d="M121.62 78.5204C125.31 82.3604 131.31 82.9304 135.42 79.6304C135.45 79.6104 135.48 79.5804 135.51 79.5604C138.4 77.2004 140.17 73.6404 140.89 69.9504C141.48 66.9304 141.36 63.6004 139.68 61.0004C137.75 58.0304 134.15 56.5904 130.67 56.0304C128.77 55.7204 126.82 55.6304 124.94 56.0104C119.48 57.1304 115.39 62.6004 115.51 68.2204C115.57 71.5704 118.92 75.7104 121.62 78.5204Z" fill="#FCB538"/>
<path d="M91.8235 97.1505C95.5135 100.991 101.514 101.561 105.624 98.2605C105.654 98.2405 105.684 98.2105 105.714 98.1905C108.604 95.8305 110.374 92.2705 111.094 88.5805C111.684 85.5605 111.564 82.2305 109.884 79.6305C107.954 76.6605 104.354 75.2205 100.874 74.6605C98.9735 74.3505 97.0235 74.2605 95.1435 74.6405C89.6835 75.7605 85.5935 81.2305 85.7135 86.8505C85.7835 90.2005 89.1235 94.3405 91.8235 97.1505Z" fill="#FCB538"/>
<path d="M121.734 115.84C125.424 119.68 131.424 120.25 135.534 116.95C135.564 116.93 135.594 116.9 135.624 116.88C138.514 114.52 140.284 110.96 141.004 107.27C141.594 104.25 141.474 100.92 139.794 98.3205C137.864 95.3505 134.264 93.9105 130.784 93.3505C128.884 93.0405 126.934 92.9505 125.054 93.3305C119.594 94.4505 115.504 99.9205 115.624 105.54C115.694 108.89 119.034 113.03 121.734 115.84Z" fill="#FCB538"/>
<path d="M91.4016 133.661C95.0916 137.501 101.092 138.071 105.202 134.771C105.232 134.751 105.262 134.721 105.292 134.701C108.182 132.331 109.952 128.781 110.672 125.091C111.262 122.071 111.142 118.741 109.462 116.141C107.532 113.171 103.932 111.731 100.452 111.171C98.5516 110.861 96.6016 110.771 94.7216 111.151C89.2616 112.271 85.1716 117.741 85.2916 123.361C85.3616 126.711 88.7116 130.851 91.4016 133.661Z" fill="#FCB538"/>
<path d="M6.11217 48.9205C9.80217 52.7605 15.8022 53.3305 19.9122 50.0305C19.9422 50.0105 19.9722 49.9805 20.0022 49.9605C22.8922 47.5905 24.6622 44.0405 25.3822 40.3505C25.9722 37.3305 25.8522 34.0005 24.1722 31.4005C22.2422 28.4305 18.6422 26.9905 15.1622 26.4305C13.2622 26.1205 11.3122 26.0305 9.43217 26.4105C3.98217 27.5405 -0.107833 33.0205 0.00216714 38.6305C0.0721671 41.9705 3.42217 46.1105 6.11217 48.9205Z" fill="#FCB538"/>
<path d="M116.101 40.1105C119.791 43.9505 125.791 44.5205 129.901 41.2205C129.931 41.2005 129.961 41.1705 129.991 41.1505C132.881 38.7905 134.651 35.2305 135.371 31.5405C135.961 28.5205 135.841 25.1905 134.161 22.5905C132.231 19.6205 128.631 18.1805 125.151 17.6205C123.251 17.3105 121.301 17.2205 119.421 17.6005C113.961 18.7205 109.871 24.1905 109.991 29.8105C110.061 33.1605 113.401 37.3005 116.101 40.1105Z" fill="#FCB538"/>
<path d="M156.012 125.19C159.752 129.08 165.842 129.65 170.032 126.29C170.062 126.27 170.092 126.24 170.122 126.22C173.062 123.82 174.862 120.21 175.612 116.47C176.222 113.41 176.102 110.03 174.402 107.4C172.442 104.39 168.792 102.94 165.262 102.38C163.332 102.07 161.352 101.98 159.442 102.37C153.902 103.51 149.732 109.07 149.842 114.77C149.882 118.15 153.272 122.34 156.012 125.19Z" fill="#FCB538"/>
</g>
<defs>
<clipPath id="clip0_1:349">
<rect width="176" height="159" fill="white"/>
</clipPath>
</defs>
</svg>
