<svg width="285" height="615" viewBox="0 0 285 615" fill="none" xmlns="http://www.w3.org/2000/svg">
<path fill-rule="evenodd" clip-rule="evenodd" d="M364.221 230.155C398.123 202.555 404.08 188.701 421.031 142.145C428.762 120.851 430.251 97.644 424.542 75.713C411.669 26.428 382.023 11.477 343.086 3.14997C304.326 -5.14003 262.623 9.70497 233.899 37.022C205.175 64.339 188.615 102.782 182.799 142.003C179.997 160.994 177.373 183.705 160.281 192.386C152.763 196.212 143.968 196.248 135.599 197.559C88.1513 205.035 56.3421 263.07 75.5624 307.075C80.5625 318.519 88.2577 328.723 92.0166 340.628C102.265 372.976 81.1653 406.565 58.1152 431.437C35.065 456.309 7.58213 480.686 1.23447 513.991C-6.07066 552.327 19.9229 592.434 56.023 607.244C92.1585 622.054 134.996 614.189 167.728 592.859C200.459 571.566 223.97 538.367 240.282 502.865C254.857 471.155 266.347 434.59 296.206 416.485C311.064 407.486 329.54 403.872 341.384 391.188C349.469 382.543 353.299 370.851 355.994 359.336C363.867 325.676 363.796 290.175 355.852 256.551C353.583 246.878 356.81 236.745 364.221 230.155Z" fill="#FCB538"/>
</svg>
